<svg width="250" height="214" viewBox="0 0 250 214" fill="none" xmlns="http://www.w3.org/2000/svg">
<g clip-path="url(#clip0_1_4)">
<path d="M10 35C10 21.1929 21.1929 10 35 10H215C228.807 10 240 21.1929 240 35V179C240 192.807 228.807 204 215 204H35C21.1929 204 10 192.807 10 179V35Z" fill="#34495E"/>
<path fill-rule="evenodd" clip-rule="evenodd" d="M35 0H215C234.33 0 250 15.67 250 35V179C250 198.33 234.33 214 215 214H35C15.67 214 0 198.33 0 179V35C0 15.67 15.67 0 35 0ZM35 10C21.1929 10 10 21.1929 10 35V179C10 192.807 21.1929 204 35 204H215C228.807 204 240 192.807 240 179V35C240 21.1929 228.807 10 215 10H35Z" fill="url(#paint0_linear_1_4)"/>
<path d="M125.5 84C131.851 84 137 78.8513 137 72.5C137 66.1487 131.851 61 125.5 61C119.149 61 114 66.1487 114 72.5C114 78.8513 119.149 84 125.5 84Z" fill="#34495E"/>
<path d="M89.0572 61.3429C84.2632 61.3429 80.3143 65.2918 80.3143 70.0857H68.6572C65.4717 70.0857 62.8286 72.7288 62.8286 75.9143V93.4H68.6572C70.3038 93.4 71.5714 94.6676 71.5714 96.3143C71.5714 97.961 70.3038 99.2286 68.6572 99.2286H62.8286V116.714C62.8286 119.9 65.4717 122.543 68.6572 122.543H86.1429V116.714C86.1429 115.068 87.4105 113.8 89.0572 113.8C90.7038 113.8 91.9714 115.068 91.9714 116.714V122.543H109.457C112.643 122.543 115.286 119.9 115.286 116.714V105.057C120.08 105.057 124.029 101.108 124.029 96.3143C124.029 91.5204 120.08 87.5714 115.286 87.5714V75.9143C115.286 72.7288 112.643 70.0857 109.457 70.0857H97.8C97.8 65.2918 93.8511 61.3429 89.0572 61.3429ZM89.0572 67.1714C90.7038 67.1714 91.9714 68.4391 91.9714 70.0857V75.9143H109.457V93.4H115.286C116.932 93.4 118.2 94.6676 118.2 96.3143C118.2 97.961 116.932 99.2286 115.286 99.2286H109.457V116.714H97.8C97.8 111.92 93.8511 107.971 89.0572 107.971C84.2632 107.971 80.3143 111.92 80.3143 116.714H68.6572V105.057C73.4511 105.057 77.4 101.108 77.4 96.3143C77.4 91.5204 73.4511 87.5714 68.6572 87.5714V75.9143H86.1429V70.0857C86.1429 68.4391 87.4105 67.1714 89.0572 67.1714Z" fill="white"/>
<path d="M89.0572 107.971C84.2632 107.971 80.3143 111.92 80.3143 116.714H68.6572C65.4717 116.714 62.8286 119.357 62.8286 122.543V140.029H68.6572C70.3038 140.029 71.5714 141.296 71.5714 142.943C71.5714 144.59 70.3038 145.857 68.6572 145.857H62.8286V163.343C62.8286 166.528 65.4717 169.171 68.6572 169.171H86.1429V163.343C86.1429 161.696 87.4105 160.429 89.0572 160.429C90.7038 160.429 91.9714 161.696 91.9714 163.343V169.171H109.457C112.643 169.171 115.286 166.528 115.286 163.343V151.686C120.08 151.686 124.029 147.737 124.029 142.943C124.029 138.149 120.08 134.2 115.286 134.2V122.543C115.286 119.357 112.643 116.714 109.457 116.714H97.8C97.8 111.92 93.8511 107.971 89.0572 107.971ZM89.0572 113.8C90.7038 113.8 91.9714 115.068 91.9714 116.714V122.543H109.457V140.029H115.286C116.932 140.029 118.2 141.296 118.2 142.943C118.2 144.59 116.932 145.857 115.286 145.857H109.457V163.343H97.8C97.8 158.549 93.8511 154.6 89.0572 154.6C84.2632 154.6 80.3143 158.549 80.3143 163.343H68.6572V151.686C73.4511 151.686 77.4 147.737 77.4 142.943C77.4 138.149 73.4511 134.2 68.6572 134.2V122.543H86.1429V116.714C86.1429 115.068 87.4105 113.8 89.0572 113.8Z" fill="white"/>
<path d="M135.686 107.971C130.892 107.971 126.943 111.92 126.943 116.714H115.286C112.1 116.714 109.457 119.357 109.457 122.543V140.029H115.286C116.932 140.029 118.2 141.296 118.2 142.943C118.2 144.59 116.932 145.857 115.286 145.857H109.457V163.343C109.457 166.528 112.1 169.171 115.286 169.171H132.771V163.343C132.771 161.696 134.039 160.429 135.686 160.429C137.332 160.429 138.6 161.696 138.6 163.343V169.171H156.086C159.271 169.171 161.914 166.528 161.914 163.343V151.686C166.708 151.686 170.657 147.737 170.657 142.943C170.657 138.149 166.708 134.2 161.914 134.2V122.543C161.914 119.357 159.271 116.714 156.086 116.714H144.429C144.429 111.92 140.48 107.971 135.686 107.971ZM135.686 113.8C137.332 113.8 138.6 115.068 138.6 116.714V122.543H156.086V140.029H161.914C163.561 140.029 164.829 141.296 164.829 142.943C164.829 144.59 163.561 145.857 161.914 145.857H156.086V163.343H144.429C144.429 158.549 140.48 154.6 135.686 154.6C130.892 154.6 126.943 158.549 126.943 163.343H115.286V151.686C120.08 151.686 124.029 147.737 124.029 142.943C124.029 138.149 120.08 134.2 115.286 134.2V122.543H132.771V116.714C132.771 115.068 134.039 113.8 135.686 113.8Z" fill="white"/>
<path d="M155.114 41.9143C150.32 41.9143 146.371 45.8632 146.371 50.6571H134.714C131.529 50.6571 128.886 53.3002 128.886 56.4857V73.9714H134.714C136.361 73.9714 137.629 75.2391 137.629 76.8857C137.629 78.5324 136.361 79.8 134.714 79.8H128.886V97.2857C128.886 100.471 131.529 103.114 134.714 103.114H152.2V97.2857C152.2 95.6391 153.468 94.3714 155.114 94.3714C156.761 94.3714 158.029 95.6391 158.029 97.2857V103.114H175.514C178.7 103.114 181.343 100.471 181.343 97.2857V85.6286C186.137 85.6286 190.086 81.6796 190.086 76.8857C190.086 72.0918 186.137 68.1429 181.343 68.1429V56.4857C181.343 53.3002 178.7 50.6571 175.514 50.6571H163.857C163.857 45.8632 159.908 41.9143 155.114 41.9143ZM155.114 47.7429C156.761 47.7429 158.029 49.0105 158.029 50.6571V56.4857H175.514V73.9714H181.343C182.99 73.9714 184.257 75.2391 184.257 76.8857C184.257 78.5324 182.99 79.8 181.343 79.8H175.514V97.2857H163.857C163.857 92.4918 159.908 88.5429 155.114 88.5429C150.32 88.5429 146.371 92.4918 146.371 97.2857H134.714V85.6286C139.508 85.6286 143.457 81.6796 143.457 76.8857C143.457 72.0918 139.508 68.1429 134.714 68.1429V56.4857H152.2V50.6571C152.2 49.0105 153.468 47.7429 155.114 47.7429Z" fill="white"/>
</g>
<defs>
<linearGradient id="paint0_linear_1_4" x1="294.601" y1="256.342" x2="11.5281" y2="8.25645" gradientUnits="userSpaceOnUse">
<stop stop-color="#03448C"/>
<stop offset="1" stop-color="#42B983"/>
</linearGradient>
<clipPath id="clip0_1_4">
<rect width="250" height="214" fill="white"/>
</clipPath>
</defs>
</svg>
